<svg xmlns="http://www.w3.org/2000/svg" viewBox="0 0 488.482 488.482">
  <path d="M456.382 359.741l4.1-6.6c1.2-2.3 2.4-4.6 3.5-6.9 2.3-4.7 4.8-9.2 6.8-14 3.7-9.7 7.7-19.3 10.1-29.4 3.1-10 4.4-20.3 6.1-30.6.7-5.2.7-10.4 1.1-15.6l.4-7.8v-2.8l-.1-1.8-.2-3.6-.6-14.3-2.3-16.2c-.4-2.7-.7-5.5-1.3-8l-1.9-7.6c-1.4-5-2.4-10.2-4.2-15.1-6.4-19.9-16.1-38.7-27.7-56-12.1-17.1-26.6-32.3-42.7-45.6-15.7-13-33.1-24.5-52-33.1-7.5-3.2-15.3-6.1-23-8.8l-11.9-3.2c-4-1-7.9-2.3-12-2.8l-12.2-2-6.1-1-6.2-.4-12.3-.7-3.1-.2h-2.6l-1.4.1-5.6.2-11.3.5c-1.8 0-4 .4-6.1.7l-6.4.9-12.8 1.9-12 3c-4 1.1-8.1 1.8-11.9 3.4l-11.6 4.2-5.8 2.2-5.6 2.7-11.1 5.4c-58.8 30.5-101.2 89.3-112 153.5-.6 4.6-1.1 9.1-1.5 13.4-.4 4.3-.8 8.5-.5 12.5.1 2.4.2 4.6.4 6.9-11.1-17.4-23.7-33.9-34-51.8-.8-1.4-5.2-1.7-7.7-1-4.9 1.3-7.2 5.4-8.1 9.7-2.9 14.3.3 27.3 6.4 38.6 11.5 21.3 22.1 43.2 35.8 63.2l.3.5c.5.7 1 1.4 1.7 2.1 7 7.6 18.9 8.1 26.6 1 4.9-4.5 9.6-9.2 14.1-14.2 3.1-2.3 6.2-4.5 9.2-6.9 19.1-15 37.5-30.9 52.7-50.1 4.3-5.5 5.5-12.7-1-19.1-5.9-5.8-13.6-7.1-19.5-3.1-10.6 7.2-21.3 14.3-30.6 23-8.6 8-16.8 16.4-24.9 24.9.5-1.6 1-3.3 1.5-5.2 1.5-5.2 3-11.1 4.2-17.9.4-3.4 1.7-6.8 2.4-10.5.8-3.7 1.6-7.5 2.4-11.5 7-28.5 20.7-55.1 39.3-77.5 18.5-22.5 42.5-40 68.5-52.3 5.1-2.8 10.7-4.5 16.1-6.6 5.4-2.3 11-3.5 16.7-5.1 2.8-.7 5.6-1.7 8.4-2.1l8.2-1.3 8.3-1.4 9.5-.6c23.4-1.5 46.9 1.1 69.2 8.2 44.7 13.9 84.1 45.4 107.3 86.8l6 14.7c1.1 2.4 1.8 5 2.6 7.5l2.3 7.6c1.8 5 2.6 10.2 3.7 15.3l1.6 7.7c.4 2.5.5 5 .8 7.5l.8 7.4c.1 1.3.3 2.4.4 3.8l.1 4.3.1 8.6.1 4.3v2.2l-.1 1-1.3 15.6c-.5 5.2-1.8 10.3-2.6 15.4-8.3 40.6-29.6 78.7-61.3 105.6-15.7 13.6-33.6 24.5-52.9 32.2-4.9 1.7-9.7 3.8-14.7 5.2l-15.1 3.9-14.6 2.3c-2.2.5-5.2.6-8.1.8l-8.6.5-4.3.2-1.7.1h-1.4l-7.8-.2c-5.2-.4-10.4-.7-15.5-1.5-10.3-1.4-20.4-3.7-30.3-6.9-19.8-6.3-38.3-16.3-54.6-28.9-2.9-2.3-7.1-4.6-10.9-6.4-3.8-1.6-8.1-3.9-10.3-4.3-4.6-1-5.7 1-4.5 5 .6 1.9 1.7 4.4 3.3 7.1 1.6 2.6 3.6 5.5 6.1 8.5 16.3 20 40.6 38 70.1 48.8 14.7 5.4 30.6 9.1 47.1 10.4l6.2.4 1.5.1.8.1h4.3c3.9-.1 7.8-.1 11.8-.2l5.9-.1 6.4-.8 12.9-1.7c40.2-7.1 78.4-25.4 108.8-53.2 15.2-13.6 28.9-29.3 39.4-47.1z"/>
</svg>
